sfk_cyclingleg_states
version=1
nRows=5
nColumns=53
inDegrees=yes

# SIMM Motion File Header:
name sfk_cyclingleg_states
datacolumns 53
datarows 5
otherdata 1
range 0.00000000 0.01381228
endheader
time	/jointset/bb/crank_angle/value	/jointset/bb/crank_angle/speed	/jointset/spindle/pedal_angle_r/value	/jointset/spindle/pedal_angle_r/speed	/jointset/ground_pelvis/pelvis_tilt/value	/jointset/ground_pelvis/pelvis_tilt/speed	/jointset/ground_pelvis/pelvis_list/value	/jointset/ground_pelvis/pelvis_list/speed	/jointset/ground_pelvis/pelvis_rotation/value	/jointset/ground_pelvis/pelvis_rotation/speed	/jointset/ground_pelvis/pelvis_tx/value	/jointset/ground_pelvis/pelvis_tx/speed	/jointset/ground_pelvis/pelvis_ty/value	/jointset/ground_pelvis/pelvis_ty/speed	/jointset/ground_pelvis/pelvis_tz/value	/jointset/ground_pelvis/pelvis_tz/speed	/jointset/hip_r/hip_angle_r/value	/jointset/hip_r/hip_angle_r/speed	/jointset/hip_r/hip_adduction_r/value	/jointset/hip_r/hip_adduction_r/speed	/jointset/hip_r/hip_rotation_r/value	/jointset/hip_r/hip_rotation_r/speed	/jointset/knee_r/knee_angle_r/value	/jointset/knee_r/knee_angle_r/speed	/jointset/knee_r/tib_tx_r/value	/jointset/knee_r/tib_tx_r/speed	/jointset/knee_r/tib_ty_r/value	/jointset/knee_r/tib_ty_r/speed	/jointset/tib_pat_r/pat_angle_r/value	/jointset/tib_pat_r/pat_angle_r/speed	/jointset/tib_pat_r/pat_tx_r/value	/jointset/tib_pat_r/pat_tx_r/speed	/jointset/tib_pat_r/pat_ty_r/value	/jointset/tib_pat_r/pat_ty_r/speed	/jointset/ankle_r/ankle_angle_r/value	/jointset/ankle_r/ankle_angle_r/speed	/jointset/subtalar_r/subtalar_angle_r/value	/jointset/subtalar_r/subtalar_angle_r/speed	/jointset/mtp_r/mtp_angle_r/value	/jointset/mtp_r/mtp_angle_r/speed	/forceset/bifemlh_r/activation	/forceset/bifemlh_r/fiber_length	/forceset/bifemsh_r/activation	/forceset/bifemsh_r/fiber_length	/forceset/glut_max2_r/activation	/forceset/glut_max2_r/fiber_length	/forceset/vas_int_r/activation	/forceset/vas_int_r/fiber_length	/forceset/med_gas_r/activation	/forceset/med_gas_r/fiber_length	/forceset/tib_ant_r/activation	/forceset/tib_ant_r/fiber_length
      0.00000000	    -10.13487855	   -480.13863232	     -0.18628652	    613.65920629	     -0.00000000	      0.00000000	     -0.00000000	      0.00000000	      0.00000000	      0.00000000	      0.00000000	      0.00000000	      0.00000000	     -0.00000000	      0.00000000	     -0.00000000	     78.60177603	     45.25367511	      4.07142490	      1.29770190	     -3.88432813	     13.53270550	   -116.16290537	    129.53631322	     -0.00236933	      0.04463813	     -0.49481603	      0.04180281	     17.65105674	     -0.04736939	      0.02137025	      0.06392326	     -0.02429584	      0.01034919	     27.93911631	    -42.49350974	     -0.00000000	      0.00000000	     -0.00000000	     -0.00000000	      0.05000000	      0.13491381	      0.05000000	      0.14476292	      0.05000000	      0.15328349	      0.05000000	      0.16084299	      0.05000000	      0.10000000	      0.05000000	      0.10000000
      0.00124211	    -10.73126558	   -480.13863232	      0.57567071	    613.21082258	      0.00000000	      0.00000000	      0.00000000	      0.00000000	      0.00000000	      0.00000000	      0.00000000	      0.00000000	     -0.00000000	     -0.00000000	     -0.00000000	     -0.00000000	     78.65652402	     42.89763636	      4.07305198	      1.32211196	     -3.86738601	     13.74619583	   -116.00050761	    131.94684969	     -0.00231348	      0.04528278	     -0.49476360	      0.04262314	     17.65099260	     -0.05599446	      0.02145032	      0.06500911	     -0.02428288	      0.01051953	     27.88600960	    -43.01355187	     -0.00000000	     -0.00000000	      0.00000000	      0.00000000	      0.04911617	      0.13491510	      0.04911617	      0.14476541	      0.04911617	      0.15328530	      0.04911617	      0.16082935	      0.05000000	      0.10000000	      0.05000000	      0.10000000
      0.00468971	    -12.38658858	   -480.13863232	      2.68757216	    611.92453121	      0.00000000	      0.00000000	      0.00000000	      0.00000000	      0.00000000	     -0.00000000	      0.00000000	      0.00000000	     -0.00000000	     -0.00000000	     -0.00000000	     -0.00000000	     78.79308362	     36.31186164	      4.07772512	      1.38849749	     -3.81899781	     14.31988020	   -115.53419358	    138.54624858	     -0.00215439	      0.04698781	     -0.49461275	      0.04488124	     17.65075485	     -0.08259427	      0.02167955	      0.06794885	     -0.02424582	      0.01097765	     27.73535591	    -44.35882436	      0.00000000	      0.00000000	      0.00000000	     -0.00000000	      0.04675389	      0.13493391	      0.04675389	      0.14479665	      0.04675389	      0.15330933	      0.04675389	      0.16069279	      0.05000000	      0.10000000	      0.05000000	      0.10000000
      0.01019051	    -15.02773662	   -480.13863232	      6.04775984	    609.76347202	      0.00000000	      0.00000000	      0.00000000	      0.00000000	     -0.00000000	      0.00000000	      0.00000000	      0.00000000	     -0.00000000	     -0.00000000	     -0.00000000	     -0.00000000	     78.96366734	     25.68934092	      4.08564438	      1.48981440	     -3.73783521	     15.17772258	   -114.74373850	    148.79071556	     -0.00188901	      0.04944676	     -0.49435609	      0.04842374	     17.65016508	     -0.13367163	      0.02206572	      0.07240905	     -0.02418352	      0.01166206	     27.48609545	    -46.20727595	     -0.00000000	     -0.00000000	      0.00000000	     -0.00000000	      0.04324408	      0.13502062	      0.04324408	      0.14489558	      0.04324408	      0.15339299	      0.04324408	      0.16037930	      0.05000000	      0.10000000	      0.05000000	      0.10000000
      0.01381228	    -16.76668890	   -480.13863232	      8.25351319	    608.28213790	      0.00000000	      0.00000000	      0.00000000	      0.00000000	     -0.00000000	     -0.00000000	      0.00000000	      0.00000000	     -0.00000000	     -0.00000000	     -0.00000000	     -0.00000000	     79.04395337	     18.64024539	      4.09115557	      1.55307264	     -3.68190251	     15.70416111	   -114.19294658	    155.33899624	     -0.00170727	      0.05088707	     -0.49417655	      0.05071305	     17.64961086	     -0.17296630	      0.02233304	      0.07518801	     -0.02414052	      0.01208002	     27.31685095	    -47.22626788	     -0.00000000	     -0.00000000	     -0.00000000	     -0.00000000	      0.04109401	      0.13511873	      0.04109401	      0.14497810	      0.04109401	      0.15346066	      0.04109401	      0.16013631	      0.05000000	      0.10000000	      0.05000000	      0.10000000
